<?xml version="1.0" encoding="UTF-8"?>
<!DOCTYPE svg PUBLIC "-//W3C//DTD SVG 1.1//EN" "http://www.w3.org/Graphics/SVG/1.1/DTD/svg11.dtd">
<svg width="160mm" height="90mm" viewBox="0 0 16000 9000" version="1.1" xmlns="http://www.w3.org/2000/svg" stroke-width="28.222" stroke-linejoin="round" xml:space="preserve">
 <path fill="rgb(255,255,255)" stroke="none" d="M 8000,8999 L 0,8999 0,0 15999,0 15999,8999 8000,8999 Z"/>
 <path fill="none" stroke="rgb(179,179,179)" stroke-linejoin="round" d="M 8794,7047 L 2282,7047 2282,1547 15307,1547 15307,7047 8794,7047 Z"/>
 <path fill="none" stroke="rgb(179,179,179)" stroke-linejoin="round" d="M 2282,1546 L 2282,7046"/>
 <path fill="none" stroke="rgb(179,179,179)" stroke-linejoin="round" d="M 4887,1546 L 4887,7046"/>
 <path fill="none" stroke="rgb(179,179,179)" stroke-linejoin="round" d="M 7492,1546 L 7492,7046"/>
 <path fill="none" stroke="rgb(179,179,179)" stroke-linejoin="round" d="M 10096,1546 L 10096,7046"/>
 <path fill="none" stroke="rgb(179,179,179)" stroke-linejoin="round" d="M 12701,1546 L 12701,7046"/>
 <path fill="none" stroke="rgb(179,179,179)" stroke-linejoin="round" d="M 15307,1546 L 15307,7046"/>
 <path fill="none" stroke="rgb(179,179,179)" stroke-linejoin="round" d="M 15307,7046 L 2282,7046"/>
 <path fill="none" stroke="rgb(179,179,179)" stroke-linejoin="round" d="M 15307,6495 L 2282,6495"/>
 <path fill="none" stroke="rgb(179,179,179)" stroke-linejoin="round" d="M 15307,5945 L 2282,5945"/>
 <path fill="none" stroke="rgb(179,179,179)" stroke-linejoin="round" d="M 15307,5395 L 2282,5395"/>
 <path fill="none" stroke="rgb(179,179,179)" stroke-linejoin="round" d="M 15307,4845 L 2282,4845"/>
 <path fill="none" stroke="rgb(179,179,179)" stroke-linejoin="round" d="M 15307,4296 L 2282,4296"/>
 <path fill="none" stroke="rgb(179,179,179)" stroke-linejoin="round" d="M 15307,3746 L 2282,3746"/>
 <path fill="none" stroke="rgb(179,179,179)" stroke-linejoin="round" d="M 15307,3196 L 2282,3196"/>
 <path fill="none" stroke="rgb(179,179,179)" stroke-linejoin="round" d="M 15307,2646 L 2282,2646"/>
 <path fill="none" stroke="rgb(179,179,179)" stroke-linejoin="round" d="M 15307,2096 L 2282,2096"/>
 <path fill="none" stroke="rgb(179,179,179)" stroke-linejoin="round" d="M 15307,1546 L 2282,1546"/>
 <path fill="none" stroke="rgb(179,179,179)" stroke-linejoin="round" d="M 2282,7196 L 2282,7046"/>
 <path fill="none" stroke="rgb(179,179,179)" stroke-linejoin="round" d="M 2282,7196 L 2282,7046"/>
 <path fill="none" stroke="rgb(179,179,179)" stroke-linejoin="round" d="M 4887,7196 L 4887,7046"/>
 <path fill="none" stroke="rgb(179,179,179)" stroke-linejoin="round" d="M 4887,7196 L 4887,7046"/>
 <path fill="none" stroke="rgb(179,179,179)" stroke-linejoin="round" d="M 7492,7196 L 7492,7046"/>
 <path fill="none" stroke="rgb(179,179,179)" stroke-linejoin="round" d="M 7492,7196 L 7492,7046"/>
 <path fill="none" stroke="rgb(179,179,179)" stroke-linejoin="round" d="M 10096,7196 L 10096,7046"/>
 <path fill="none" stroke="rgb(179,179,179)" stroke-linejoin="round" d="M 10096,7196 L 10096,7046"/>
 <path fill="none" stroke="rgb(179,179,179)" stroke-linejoin="round" d="M 12701,7196 L 12701,7046"/>
 <path fill="none" stroke="rgb(179,179,179)" stroke-linejoin="round" d="M 12701,7196 L 12701,7046"/>
 <path fill="none" stroke="rgb(179,179,179)" stroke-linejoin="round" d="M 15307,7196 L 15307,7046"/>
 <path fill="none" stroke="rgb(179,179,179)" stroke-linejoin="round" d="M 15307,7196 L 15307,7046"/>
 <path fill="none" stroke="rgb(179,179,179)" stroke-linejoin="round" d="M 2282,7046 L 15307,7046"/>
 <path fill="none" stroke="rgb(179,179,179)" stroke-linejoin="round" d="M 2132,7046 L 2282,7046"/>
 <path fill="none" stroke="rgb(179,179,179)" stroke-linejoin="round" d="M 2132,7046 L 2282,7046"/>
 <path fill="none" stroke="rgb(179,179,179)" stroke-linejoin="round" d="M 2132,6495 L 2282,6495"/>
 <path fill="none" stroke="rgb(179,179,179)" stroke-linejoin="round" d="M 2132,6495 L 2282,6495"/>
 <path fill="none" stroke="rgb(179,179,179)" stroke-linejoin="round" d="M 2132,5945 L 2282,5945"/>
 <path fill="none" stroke="rgb(179,179,179)" stroke-linejoin="round" d="M 2132,5945 L 2282,5945"/>
 <path fill="none" stroke="rgb(179,179,179)" stroke-linejoin="round" d="M 2132,5395 L 2282,5395"/>
 <path fill="none" stroke="rgb(179,179,179)" stroke-linejoin="round" d="M 2132,5395 L 2282,5395"/>
 <path fill="none" stroke="rgb(179,179,179)" stroke-linejoin="round" d="M 2132,4845 L 2282,4845"/>
 <path fill="none" stroke="rgb(179,179,179)" stroke-linejoin="round" d="M 2132,4845 L 2282,4845"/>
 <path fill="none" stroke="rgb(179,179,179)" stroke-linejoin="round" d="M 2132,4296 L 2282,4296"/>
 <path fill="none" stroke="rgb(179,179,179)" stroke-linejoin="round" d="M 2132,4296 L 2282,4296"/>
 <path fill="none" stroke="rgb(179,179,179)" stroke-linejoin="round" d="M 2132,3746 L 2282,3746"/>
 <path fill="none" stroke="rgb(179,179,179)" stroke-linejoin="round" d="M 2132,3746 L 2282,3746"/>
 <path fill="none" stroke="rgb(179,179,179)" stroke-linejoin="round" d="M 2132,3196 L 2282,3196"/>
 <path fill="none" stroke="rgb(179,179,179)" stroke-linejoin="round" d="M 2132,3196 L 2282,3196"/>
 <path fill="none" stroke="rgb(179,179,179)" stroke-linejoin="round" d="M 2132,2646 L 2282,2646"/>
 <path fill="none" stroke="rgb(179,179,179)" stroke-linejoin="round" d="M 2132,2646 L 2282,2646"/>
 <path fill="none" stroke="rgb(179,179,179)" stroke-linejoin="round" d="M 2132,2096 L 2282,2096"/>
 <path fill="none" stroke="rgb(179,179,179)" stroke-linejoin="round" d="M 2132,2096 L 2282,2096"/>
 <path fill="none" stroke="rgb(179,179,179)" stroke-linejoin="round" d="M 2132,1546 L 2282,1546"/>
 <path fill="none" stroke="rgb(179,179,179)" stroke-linejoin="round" d="M 2132,1546 L 2282,1546"/>
 <path fill="none" stroke="rgb(179,179,179)" stroke-linejoin="round" d="M 2282,7046 L 2282,1546"/>
 <path fill="none" stroke="rgb(0,69,134)" stroke-width="80" stroke-linejoin="round" d="M 2282,2164 L 2412,2297 2542,2430 2672,2562 2803,2694 2933,2825 3063,2955 3193,3084 3324,3211 3454,3337 3584,3460 3714,3582 3845,3702 3975,3819 4105,3934 4235,4046 4366,4155 4496,4260 4626,4362 4756,4461 4887,4555 5017,4645 5147,4732 5277,4815 5408,4895 5538,4971 5668,5044 5799,5114 5929,5181 6059,5245 6189,5306 6320,5365 6450,5421 6580,5475 6710,5527 6841,5578 6971,5626 7101,5673 7231,5718 7362,5762 7492,5805 7622,5846 7752,5887 7883,5927 8012,5965 8142,6002 8272,6038 8403,6073 8533,6107 8663,6139 8794,6170 8924,6199 9054,6227 9184,6254 9315,6279 9445,6303 9575,6325 9705,6345 9836,6364 9966,6381 10096,6396 10226,6410 10357,6422 10487,6433 10617,6442 10747,6450 10878,6457 11008,6462 11138,6467 11268,6471 11399,6475 11529,6478 11659,6480 11789,6482 11920,6484 12050,6486 12180,6489 12311,6491 12441,6493 12571,6497 12701,6500 12832,6505 12962,6510 13092,6515 13222,6521 13353,6528 13483,6535 13613,6543 13743,6551 13874,6560 14004,6569 14134,6579 14264,6588 14395,6598 14525,6608 14655,6619 14785,6629 14916,6640 15046,6651 15176,6662 15307,6673"/>
 <path fill="rgb(0,69,134)" stroke="none" d="M 2157,2039 L 2157,2289 2407,2289 2407,2039 2157,2039 Z"/>
 <path fill="none" stroke="rgb(0,69,134)" stroke-linejoin="round" d="M 2157,2039 L 2157,2289 2407,2289 2407,2039 2157,2039 Z"/>
 <path fill="rgb(0,69,134)" stroke="none" d="M 4762,4431 L 4762,4680 5012,4680 5012,4431 4762,4431 Z"/>
 <path fill="none" stroke="rgb(0,69,134)" stroke-linejoin="round" d="M 4762,4431 L 4762,4680 5012,4680 5012,4431 4762,4431 Z"/>
 <path fill="rgb(0,69,134)" stroke="none" d="M 7367,5680 L 7367,5930 7617,5930 7617,5680 7367,5680 Z"/>
 <path fill="none" stroke="rgb(0,69,134)" stroke-linejoin="round" d="M 7367,5680 L 7367,5930 7617,5930 7617,5680 7367,5680 Z"/>
 <path fill="rgb(0,69,134)" stroke="none" d="M 9971,6271 L 9971,6521 10221,6521 10221,6271 9971,6271 Z"/>
 <path fill="none" stroke="rgb(0,69,134)" stroke-linejoin="round" d="M 9971,6271 L 9971,6521 10221,6521 10221,6271 9971,6271 Z"/>
 <path fill="rgb(0,69,134)" stroke="none" d="M 12576,6375 L 12576,6625 12826,6625 12826,6375 12576,6375 Z"/>
 <path fill="none" stroke="rgb(0,69,134)" stroke-linejoin="round" d="M 12576,6375 L 12576,6625 12826,6625 12826,6375 12576,6375 Z"/>
 <path fill="rgb(0,69,134)" stroke="none" d="M 15182,6548 L 15182,6798 15432,6798 15432,6548 15182,6548 Z"/>
 <path fill="none" stroke="rgb(0,69,134)" stroke-linejoin="round" d="M 15182,6548 L 15182,6798 15432,6798 15432,6548 15182,6548 Z"/>
 <text class="TextShape"><tspan class="TextParagraph" font-family="Liberation Sans" font-size="353px" font-weight="400"><tspan class="TextPosition" x="2189" y="7614"><tspan fill="rgb(0,0,0)" stroke="none">1</tspan></tspan></tspan></text>
 <text class="TextShape"><tspan class="TextParagraph" font-family="Liberation Sans" font-size="353px" font-weight="400"><tspan class="TextPosition" x="4794" y="7614"><tspan fill="rgb(0,0,0)" stroke="none">2</tspan></tspan></tspan></text>
 <text class="TextShape"><tspan class="TextParagraph" font-family="Liberation Sans" font-size="353px" font-weight="400"><tspan class="TextPosition" x="7399" y="7614"><tspan fill="rgb(0,0,0)" stroke="none">4</tspan></tspan></tspan></text>
 <text class="TextShape"><tspan class="TextParagraph" font-family="Liberation Sans" font-size="353px" font-weight="400"><tspan class="TextPosition" x="10004" y="7614"><tspan fill="rgb(0,0,0)" stroke="none">8</tspan></tspan></tspan></text>
 <text class="TextShape"><tspan class="TextParagraph" font-family="Liberation Sans" font-size="353px" font-weight="400"><tspan class="TextPosition" x="12517" y="7614"><tspan fill="rgb(0,0,0)" stroke="none">16</tspan></tspan></tspan></text>
 <text class="TextShape"><tspan class="TextParagraph" font-family="Liberation Sans" font-size="353px" font-weight="400"><tspan class="TextPosition" x="15123" y="7614"><tspan fill="rgb(0,0,0)" stroke="none">24</tspan></tspan></tspan></text>
 <text class="TextShape"><tspan class="TextParagraph" font-family="Liberation Sans" font-size="353px" font-weight="400"><tspan class="TextPosition" x="1847" y="7167"><tspan fill="rgb(0,0,0)" stroke="none">0</tspan></tspan></tspan></text>
 <text class="TextShape"><tspan class="TextParagraph" font-family="Liberation Sans" font-size="353px" font-weight="400"><tspan class="TextPosition" x="1476" y="6616"><tspan fill="rgb(0,0,0)" stroke="none">100</tspan></tspan></tspan></text>
 <text class="TextShape"><tspan class="TextParagraph" font-family="Liberation Sans" font-size="353px" font-weight="400"><tspan class="TextPosition" x="1476" y="6066"><tspan fill="rgb(0,0,0)" stroke="none">200</tspan></tspan></tspan></text>
 <text class="TextShape"><tspan class="TextParagraph" font-family="Liberation Sans" font-size="353px" font-weight="400"><tspan class="TextPosition" x="1476" y="5516"><tspan fill="rgb(0,0,0)" stroke="none">300</tspan></tspan></tspan></text>
 <text class="TextShape"><tspan class="TextParagraph" font-family="Liberation Sans" font-size="353px" font-weight="400"><tspan class="TextPosition" x="1476" y="4966"><tspan fill="rgb(0,0,0)" stroke="none">400</tspan></tspan></tspan></text>
 <text class="TextShape"><tspan class="TextParagraph" font-family="Liberation Sans" font-size="353px" font-weight="400"><tspan class="TextPosition" x="1476" y="4416"><tspan fill="rgb(0,0,0)" stroke="none">500</tspan></tspan></tspan></text>
 <text class="TextShape"><tspan class="TextParagraph" font-family="Liberation Sans" font-size="353px" font-weight="400"><tspan class="TextPosition" x="1476" y="3866"><tspan fill="rgb(0,0,0)" stroke="none">600</tspan></tspan></tspan></text>
 <text class="TextShape"><tspan class="TextParagraph" font-family="Liberation Sans" font-size="353px" font-weight="400"><tspan class="TextPosition" x="1476" y="3316"><tspan fill="rgb(0,0,0)" stroke="none">700</tspan></tspan></tspan></text>
 <text class="TextShape"><tspan class="TextParagraph" font-family="Liberation Sans" font-size="353px" font-weight="400"><tspan class="TextPosition" x="1476" y="2766"><tspan fill="rgb(0,0,0)" stroke="none">800</tspan></tspan></tspan></text>
 <text class="TextShape"><tspan class="TextParagraph" font-family="Liberation Sans" font-size="353px" font-weight="400"><tspan class="TextPosition" x="1476" y="2216"><tspan fill="rgb(0,0,0)" stroke="none">900</tspan></tspan></tspan></text>
 <text class="TextShape"><tspan class="TextParagraph" font-family="Liberation Sans" font-size="353px" font-weight="400"><tspan class="TextPosition" x="1291" y="1666"><tspan fill="rgb(0,0,0)" stroke="none">1000</tspan></tspan></tspan></text>
 <text class="TextShape"><tspan class="TextParagraph" font-family="Liberation Sans" font-size="494px" font-weight="400"><tspan class="TextPosition" x="5764" y="913"><tspan fill="rgb(0,0,0)" stroke="none">Varianta 2, měření 3</tspan></tspan></tspan></text>
 <text class="TextShape"><tspan class="TextParagraph" font-family="Liberation Sans" font-size="423px" font-weight="400"><tspan class="TextPosition" x="7386" y="8372"><tspan fill="rgb(0,0,0)" stroke="none">Počet vláken</tspan></tspan></tspan></text>
 <text class="TextShape" transform="translate(948,4891) rotate(-90) translate(-948,-4891)"><tspan class="TextParagraph" font-family="Liberation Sans" font-size="423px" font-weight="400"><tspan class="TextPosition" x="948" y="4891"><tspan fill="rgb(0,0,0)" stroke="none">Čas</tspan></tspan></tspan></text>
</svg>